Coordinates
version=1
nRows=11
nColumns=40
inDegrees=yes

Units are S.I. units (second, meters, Newtons, ...)
Angles are in degrees.

endheader
time	pelvis_tilt	pelvis_list	pelvis_rotation	pelvis_tx	pelvis_ty	pelvis_tz	hip_flexion_r	hip_adduction_r	hip_rotation_r	knee_angle_r	knee_angle_r_beta	ankle_angle_r	subtalar_angle_r	mtp_angle_r	hip_flexion_l	hip_adduction_l	hip_rotation_l	knee_angle_l	knee_angle_l_beta	ankle_angle_l	subtalar_angle_l	mtp_angle_l	lumbar_extension	lumbar_bending	lumbar_rotation	arm_flex_r	arm_add_r	arm_rot_r	elbow_flex_r	pro_sup_r	wrist_flex_r	wrist_dev_r	arm_flex_l	arm_add_l	arm_rot_l	elbow_flex_l	pro_sup_l	wrist_flex_l	wrist_dev_l
      1.30000000	     -2.69846842	     -2.24518772	      7.35722491	     -0.50822818	      0.88289746	     -1.43584262	     24.03610237	      2.09489622	    -12.63289424	    -27.20337436	     -0.47478845	      2.66515292	     -5.89953840	      3.25217510	      1.68872500	      8.29353803	      5.00286271	    -49.96478624	     -0.87205003	    -17.48523011	      7.77508598	     -2.80912795	     -0.07090439	      0.76193512	    -10.02606866	     -7.89046480	     -7.81453921	    -16.33169302	     18.43035955	     89.95437384	      0.00000000	      0.00000000	      1.48828403	     12.31442933	     21.20544485	     52.29634033	     89.95437384	      0.00000000	      0.00000000
      1.31000000	     -2.77092649	     -2.47433205	      7.16437712	     -0.49778411	      0.88359749	     -1.43478521	     23.27409710	      2.50398249	    -12.84921467	    -27.01312309	     -0.47146794	      3.25436866	     -5.31185960	      3.17663109	      3.33973031	      8.49292996	      4.52849288	    -52.59676310	     -0.91798669	    -18.37818541	      8.87114644	     -2.19724036	      0.05145116	      1.10285857	     -9.57774695	     -7.66707930	     -7.93900215	    -16.33398710	     18.79120375	     89.95437384	      0.00000000	      0.00000000	      1.02595983	     11.94525183	     21.05518774	     51.69104697	     89.95437384	      0.00000000	      0.00000000
      1.32000000	     -2.75920124	     -2.68840524	      6.96500489	     -0.48759462	      0.88444580	     -1.43379464	     22.37811621	      2.93532374	    -12.97024808	    -26.70224560	     -0.46604210	      3.92838653	     -4.71772485	      3.02548483	      4.92018422	      8.65356714	      4.24950650	    -55.08905660	     -0.96148542	    -18.65755804	     10.29557591	     -1.69251224	      0.03908572	      1.44288077	     -9.09124267	     -7.37345607	     -8.07374704	    -16.30533507	     19.15139656	     89.95437384	      0.00000000	      0.00000000	      0.65641860	     11.57368148	     20.85601015	     50.97890997	     89.95437384	      0.00000000	      0.00000000
      1.33000000	     -2.81505252	     -2.84166895	      6.77267231	     -0.47751370	      0.88513552	     -1.43285560	     21.58217425	      3.25390419	    -13.20885622	    -26.44802466	     -0.46160511	      4.39513238	     -4.13529524	      2.88416905	      6.60272989	      8.74651388	      4.11434254	    -57.57687619	     -1.00490606	    -17.92378195	     12.02674711	     -1.11813167	      0.09100966	      1.69225165	     -8.59591125	     -7.17464349	     -8.19355960	    -16.19828296	     19.76157619	     89.95437384	      0.00000000	      0.00000000	      0.22248597	     11.21075781	     20.65291624	     50.38256626	     89.95437384	      0.00000000	      0.00000000
      1.34000000	     -2.79811777	     -2.91072814	      6.57638633	     -0.46755611	      0.88600562	     -1.43208896	     20.70385106	      3.49272703	    -13.32376946	    -26.19763574	     -0.45723500	      4.91237033	     -3.60409459	      2.73840682	      8.20154020	      8.73392739	      4.03763303	    -59.82243527	     -1.04409846	    -17.18951170	     13.56975906	     -0.41330466	      0.02070362	      1.88113351	     -8.08301875	     -6.90821736	     -8.34360423	    -16.07778784	     20.34002584	     89.95437384	      0.00000000	      0.00000000	     -0.18235672	     10.89596234	     20.34909830	     49.69496424	     89.95437384	      0.00000000	      0.00000000
      1.35000000	     -2.55249471	     -2.86027066	      6.42774959	     -0.45740449	      0.88726898	     -1.43118148	     19.49432009	      3.67187088	    -13.24051133	    -25.89199172	     -0.45190051	      5.50894408	     -3.22913914	      2.59420820	      9.46717821	      8.71854183	      4.14200735	    -61.71952313	     -1.07720889	    -16.52617127	     14.53791294	     -0.16949150	     -0.28881155	      1.91025562	     -7.58496575	     -6.49824410	     -8.43827723	    -15.94924444	     20.66152223	     89.95437384	      0.00000000	      0.00000000	     -0.48695548	     10.59481901	     20.14297664	     48.85883916	     89.95437384	      0.00000000	      0.00000000
      1.36000000	     -2.52949269	     -2.84437951	      6.26335533	     -0.44752171	      0.88809494	     -1.43069798	     18.60141711	      3.68778492	    -13.64416710	    -25.69323724	     -0.44843159	      6.20493047	     -2.05792733	      1.99504343	     11.12870130	      8.49648551	      4.10146969	    -63.79367164	     -1.11340961	    -14.15441669	     14.86103519	     11.76488857	     -0.37423246	      2.01017196	     -7.03361969	     -6.26893027	     -8.65393972	    -15.66245562	     21.32452154	     89.95437384	      0.00000000	      0.00000000	     -0.86549095	     10.22623952	     19.87638205	     48.15797248	     89.95437384	      0.00000000	      0.00000000
      1.37000000	     -2.31939268	     -2.77878613	      6.08373716	     -0.43759025	      0.88929273	     -1.42989740	     17.37679188	      3.86691718	    -13.43207344	    -25.22826300	     -0.44031625	      6.76912949	     -1.78977775	      1.85950540	     12.44064968	      8.32366092	      4.12883989	    -65.31731034	     -1.14000212	    -13.24041260	     15.50744683	     11.64395504	     -0.67393054	      2.02583206	     -6.50222093	     -5.81276785	     -8.77455316	    -15.52219460	     21.70262344	     89.95437384	      0.00000000	      0.00000000	     -1.19760788	      9.96397013	     19.57104971	     47.31868530	     89.95437384	      0.00000000	      0.00000000
      1.38000000	     -2.10270581	     -2.72488788	      5.86785143	     -0.42785039	      0.89048002	     -1.42924248	     16.20686275	      4.00332545	    -13.34015724	    -24.85541892	     -0.43380890	      7.20902662	     -1.46560340	      1.73455935	     13.74596665	      8.15930981	      4.21991308	    -66.69914154	     -1.16411963	    -11.94873370	     16.10143838	     11.48032825	     -0.99642791	      2.07867124	     -5.95048167	     -5.30049127	     -8.95276586	    -15.31869616	     22.08711635	     89.95437384	      0.00000000	      0.00000000	     -1.52322179	      9.68988876	     19.23503411	     46.43766755	     89.95437384	      0.00000000	      0.00000000
      1.39000000	     -1.95218027	     -2.44194730	      5.54302469	     -0.41829506	      0.89153501	     -1.42844096	     15.21107413	      3.83732280	    -13.42400244	    -24.66735584	     -0.43052658	      7.39948877	     -1.33121520	      1.65645412	     15.06333177	      7.76502395	      4.47625943	    -67.76064299	     -1.18264632	    -11.19461222	     15.92455951	     11.22191933	     -1.33236018	      1.84240183	     -5.31199183	     -4.77793408	     -9.07288801	    -15.13822106	     22.54136059	     89.95437384	      0.00000000	      0.00000000	     -1.93377267	      9.45357987	     19.04049012	     45.81989572	     89.95437384	      0.00000000	      0.00000000
      1.40000000	     -1.86293834	     -2.58361452	      5.33191383	     -0.40850973	      0.89239416	     -1.42790176	     14.15891468	      4.17939069	    -13.29988297	    -24.15971756	     -0.42166662	      7.85055338	     -0.68162707	      1.44152165	     16.42240582	      7.68724348	      4.40448547	    -68.73092697	     -1.19958097	     -8.56568565	     16.38866586	     10.94193685	     -1.44221003	      2.11701100	     -4.74542947	     -4.35731192	     -9.35941952	    -14.80235812	     23.05340498	     89.95437384	      0.00000000	      0.00000000	     -2.20640428	      9.18352212	     18.58118957	     44.68591820	     89.95437384	      0.00000000	      0.00000000
